**ABCDEFGHIJKLMNOPQRSTUVWXYZabcdefghijklmnopqrstuvwxyz**************************
**PARASOLID !"#$%&'()*+,-./:;<=>?@[\]^_`{|}~0123456789**************************
**PART1;
MC=AMD64;
MC_MODEL=Intel64 Family 6 Model 69 Stepping 1, GenuineIntel;
MC_ID=unknown;
OS=Windows_NT;
OS_RELEASE=unknown;
FRU=Parasolid Version 31.1, build 284, 10- 9-2019;
APPL=SOLIDWORKS 2020-2019310;
SITE=;
USER=unknown;
FORMAT=text;
GUISE=transmit;
KEY=finger up;
FILE=finger up.x_t;
DATE=Sun Mar 28 12:02:20 2021;
**PART2;
SCH=SCH_3101284_31100;
USFLD_SIZE=0;
**PART3;
**END_OF_HEADER*****************************************************************
T51 : TRANSMIT FILE created by modeller version 310128423 SCH_3101284_31100_1300
6222 0 12 34 CCCCCCI4 mesh1006 0 I8 polyline1008 0 CCCCCCCDI5 owner1040 0 CCCCCC
I13 boundary_mesh1006 0 I17 boundary_polyline1008 0 CCCA16 index_map_offset0 0 1
 dA9 index_map82 0 A17 node_id_index_map82 0 A20 schema_embedding_map82 0 A5 chi
ld12 0 A14 lowest_node_id0 0 1 dA16 mesh_offset_data206 0 Z1 1001 2 3 0 0 0 0 0
 0 1e3 1e-8 0 4 0 1 0 1 1 5 6 7 8 0 0 9 10 11 0 0 0 0 0 0 0 81 255 2 2 988 12 1
 13 0 0 0 0 14 70 11 CI9 list_type0 0 1 uI10 notransmit0 0 1 lCCCDCCDI12 finger_
index0 0 1 dI12 finger_block1012 0 CZ3 0 4 T1 0 0 8 20 1 15 15 13 255 5 141 0 1
 0 16 0 0 17 0 50 255 6 133 0 16 18 0 0 +0 0 .02 -1 0 0 0 0 1 31 255 7 873 0 19
 20 0 0 +-.01 .035 .0125 1 1126443815569354e-31 0 -1126443815569354e-31 1 0 .002
 29 255 8 420 0 11 21 0 -.005 .04 -.02 19 8 CCCCCCCA5 owner12 0 Z9 47 0 1 17 0 2
2 V0 16 255 10 115 0 ?23 0 24 20 0 0 1 18 255 11 418 0 25 0 26 8 ?1 17 255 25 0
 27 28 29 11 30 31 0 32 -18 26 41 0 33 11 34 35 ?1 17 33 0 36 37 38 26 39 40 0 4
1 +18 34 38 0 38 26 42 43 ?1 29 35 43 0 26 43 44 -.01 .077 .02 29 43 40 0 34 45
 35 -.05 .077 .02 29 44 109 0 46 35 47 0 .087 -.02 18 46 96 0 48 49 50 44 ?1 29
 47 108 0 49 44 51 -.05 .087 -.02 18 49 95 0 52 53 46 47 ?1 29 51 107 0 53 47 21
 -.05 .077 -.02 18 53 94 0 54 55 49 51 ?1 29 21 106 0 55 51 8 -.01 .077 -.02 18
 55 93 0 56 57 53 21 ?1 17 56 0 58 41 59 55 60 61 0 62 +18 57 32 0 63 42 55 64 ?
1 17 63 0 36 65 66 57 67 68 0 69 +18 42 35 0 65 34 57 45 ?1 29 64 34 0 57 70 45
 0 .087 .02 29 70 645 0 71 72 64 -.01 .03 .02 29 45 37 0 42 64 43 -.05 .087 .02
 18 71 520 0 73 74 75 70 ?1 29 72 646 0 75 76 70 -.005 .03 .02 18 75 522 0 77 71
 78 72 ?1 29 76 647 0 78 79 72 -.005 .04 .02 18 78 524 0 28 75 80 76 ?1 29 79 64
8 0 80 81 76 0 .04 .02 18 80 514 0 82 78 0 79 ?1 29 81 651 0 50 83 79 -.01 .03 -
.02 18 50 515 0 84 46 85 81 ?1 29 83 652 0 85 86 81 -.005 .03 -.02 18 85 519 0 2
9 50 74 83 ?1 29 86 654 0 74 0 83 0 .04 -.02 18 74 523 0 87 85 71 86 ?1 17 87 0
 88 82 32 74 89 90 0 91 -15 255 88 598 0 92 93 0 17 82 0 88 92 87 80 91 94 0 66
 +17 32 0 88 87 92 11 28 95 0 89 -17 89 0 96 30 97 11 87 90 0 0 +16 90 491 0 ?89
 31 98 99 0 0 1 17 91 0 100 48 67 74 82 94 0 97 -15 100 125 0 67 16 0 17 48 0 10
0 69 91 46 97 101 0 23 +17 67 0 100 91 69 80 63 68 0 0 -16 94 466 0 ?82 95 102 1
03 0 0 1 17 97 0 96 89 104 74 48 101 0 0 -15 96 67 0 30 105 0 17 104 0 96 97 106
 46 52 107 0 0 -16 101 416 0 ?48 107 108 109 0 0 1 16 107 80 0 ?52 110 101 111 0
 0 1 16 108 486 0 ?112 101 113 114 0 0 1 30 255 109 103 0 101 115 111 0 +0 0 -.0
2 0 1 0 30 115 27 0 116 117 109 0 +-.01 .077 .02 1126443815569354e-31 -1 0 30 11
1 102 0 107 109 118 0 +0 .087 -.02 -1 -277555756156289e-30 0 30 118 101 0 110 11
1 119 0 +-.05 .087 -.02 0 -1 0 16 110 76 0 ?54 61 107 118 0 0 1 30 119 100 0 61
 118 120 0 +-.05 .077 -.02 1 0 0 16 61 72 0 ?56 121 110 119 0 0 1 30 120 99 0 12
1 119 122 0 +-.01 .077 -.02 1126443815569354e-31 -1 0 16 121 68 0 ?123 68 61 120
 0 0 1 30 122 136 0 124 120 125 0 +-.01 .077 .02 0 0 -1 16 124 112 0 ?62 126 116
 122 0 0 1 30 125 137 0 126 122 127 0 +-.05 .077 .02 0 0 -1 16 126 113 0 ?59 24
 124 125 0 0 1 30 127 138 0 24 125 20 0 +-.05 .087 .02 0 0 -1 16 24 114 0 ?128 1
0 126 127 0 0 1 30 20 139 0 10 127 7 0 +0 .087 .02 0 0 -1 17 128 0 129 54 130 49
 131 24 0 106 +15 129 121 0 54 132 0 17 54 0 129 133 128 53 106 110 0 59 +17 130
 0 129 128 133 42 38 134 0 0 -17 131 0 135 136 52 42 128 24 0 130 -17 106 0 96 1
04 60 49 54 110 0 0 -17 60 0 96 106 137 53 56 61 0 0 -17 137 0 96 60 138 55 123
 121 0 0 -17 138 0 96 137 30 50 139 102 0 123 +17 123 0 140 112 62 50 137 121 0
 0 +15 140 117 0 123 141 0 17 112 0 140 142 123 71 84 108 0 37 +17 62 0 140 123
 142 55 41 124 0 137 +17 142 0 140 62 112 26 37 116 0 0 -17 41 0 58 39 56 26 62
 124 0 142 -15 58 119 0 56 143 0 17 39 0 58 59 41 34 33 40 0 0 -17 59 0 58 56 39
 53 133 126 0 60 +16 40 21 0 ?33 116 134 117 0 0 1 16 116 25 0 ?37 124 40 115 0
 0 1 16 134 17 0 ?38 40 144 145 0 0 1 30 117 23 0 40 145 115 0 +-.05 .077 .02 1
 0 0 30 145 19 0 134 146 117 0 +-.05 .087 .02 0 -1 0 30 146 15 0 144 147 145 0 +
0 .087 .02 -1 -277555756156289e-30 0 16 144 13 0 ?65 134 68 146 0 0 1 30 147 11
 0 68 103 146 0 +0 0 .02 0 1 0 16 68 432 0 ?63 144 121 147 0 0 1 30 103 625 0 94
 148 147 0 +0 .04 -.02 0 0 1 30 148 626 0 95 149 103 0 +-.005 .04 -.02 0 0 1 16
 95 494 0 ?28 113 94 148 0 0 1 30 149 627 0 113 114 148 0 +-.005 .03 -.02 0 0 1
 16 113 490 0 ?77 108 95 149 0 0 1 30 114 628 0 108 150 149 0 +-.01 .03 -.02 0 0
 1 30 150 633 0 98 151 114 0 +-.01 .03 .02 -1 0 0 16 98 504 0 ?73 90 152 150 0 0
 1 30 151 634 0 152 153 150 0 +-.005 .03 .02 1734723475976805e-31 -1 0 16 152 50
1 0 ?154 98 155 151 0 0 1 30 153 635 0 155 156 151 0 +-.005 .04 .02 -1 0 0 16 15
5 498 0 ?92 152 157 153 0 0 1 30 156 639 0 102 158 153 0 +-.01 .03 -.02 -1 0 0 1
6 102 483 0 ?138 94 31 156 0 0 1 30 158 640 0 31 99 156 0 +-.005 .03 -.02 173472
3475976805e-31 -1 0 16 31 487 0 ?30 102 90 158 0 0 1 30 99 641 0 90 159 158 0 +-
.005 .04 -.02 -1 0 0 31 159 816 0 157 160 99 0 +-.01 .035 -.0125 1 1126443815569
354e-31 0 -1126443815569354e-31 1 0 .002 16 157 790 0 ?161 155 162 159 0 0 1 31
 160 818 0 162 163 159 0 +-.005 .035 -.0125 1 0 0 0 0 -1 .002 16 162 791 0 ?164
 157 165 160 0 0 1 31 163 866 0 165 166 160 0 +-.01 .035 0 1 1126443815569354e-3
1 0 -1126443815569354e-31 1 0 .002 16 165 840 0 ?167 162 168 163 0 0 1 31 166 86
8 0 168 169 163 0 +-.005 .035 0 1 0 0 0 0 -1 .002 16 168 841 0 ?170 165 19 166 0
 0 1 31 169 918 0 171 0 166 0 +-.005 .035 .0125 1 0 0 0 0 -1 .002 16 171 892 0 ?
172 19 0 169 0 0 1 17 172 0 173 172 172 0 174 171 0 0 +16 19 891 0 ?175 168 171
 7 0 0 1 17 175 0 176 175 175 0 177 19 0 0 +15 176 871 0 175 141 178 17 177 0 17
9 177 177 0 175 19 0 0 -15 179 898 0 177 180 0 14 255 180 894 181 ?0 182 173 5 1
83 -0 0 0 182 22 81 1 181 989 184 180 185 0 0 186 187 14 182 843 186 ?180 188 18
9 5 190 -0 0 180 188 22 15 173 897 0 172 180 179 51 255 183 916 0 180 0 190 0 +-
.005 .035 .0125 1 0 0 .002 0 0 -1 13 22 48 0 0 0 0 0 0 9 16 14 16 126 191 ?192 0
 100 5 6 -0 0 192 0 22 81 1 191 991 184 16 193 0 186 194 195 14 192 124 194 ?132
 16 135 5 18 -0 0 132 16 22 81 1 194 992 184 192 196 0 191 197 198 14 132 122 19
7 ?143 192 129 5 199 -0 0 143 192 22 15 135 123 0 52 192 0 50 18 132 0 192 199 6
 0 +0 .087 .02 277555756156289e-30 -1 0 1 277555756156289e-30 0 50 199 131 0 132
 200 18 0 +-.05 .087 .02 1 0 0 0 0 -1 50 200 130 0 143 201 199 0 +-.05 .077 .02
 0 1 0 0 0 1 14 143 120 202 ?141 132 58 5 200 -0 0 141 132 22 50 201 129 0 141 2
03 200 0 +-.01 .077 .02 1 1126443815569354e-31 0 -1126443815569354e-31 1 0 14 14
1 118 204 ?205 143 176 5 201 -0 0 205 143 22 50 203 98 0 105 206 201 0 +0 0 -.02
 0 0 1 1 0 0 14 105 66 207 ?208 205 96 5 203 -0 0 208 205 22 50 206 3 0 205 209
 203 0 +0 0 .02 0 0 1 1 0 0 14 205 1 210 ?105 141 36 5 206 +0 0 105 141 22 50 20
9 608 0 93 211 206 0 +-.005 .04 -.02 0 1 0 0 0 1 14 93 595 212 ?188 213 88 5 209
 -0 0 188 213 22 50 211 609 0 213 214 209 0 +-.005 .03 -.02 -1 -1734723475976805
e-31 0 1734723475976805e-31 -1 0 14 213 591 215 ?93 208 216 5 211 -0 0 93 208 22
 50 214 610 0 208 217 211 0 +-.01 .03 -.02 0 1 0 0 0 1 14 208 587 218 ?213 105 2
19 5 214 -0 0 213 105 22 51 217 815 0 188 190 214 0 +-.005 .035 -.0125 1 0 0 .00
2 0 0 -1 14 188 793 220 ?182 93 221 5 217 -0 0 182 93 22 51 190 865 0 182 183 21
7 0 +-.005 .035 0 1 0 0 .002 0 0 -1 81 1 220 1001 184 188 222 0 218 0 223 15 221
 796 0 164 188 224 17 164 0 221 164 164 0 225 162 0 0 +15 224 797 0 226 188 0 17
 226 0 224 226 226 0 161 157 0 0 -17 161 0 227 161 161 0 226 157 0 0 +15 227 781
 0 161 141 140 17 225 0 228 225 225 0 164 162 0 0 -15 228 771 0 225 213 27 15 27
 594 0 154 213 0 17 154 0 27 29 28 75 229 152 0 230 +17 29 0 27 25 154 85 77 113
 0 139 -17 28 0 27 154 25 78 32 95 0 92 +17 229 0 36 66 230 78 154 152 0 0 -17 2
30 0 36 229 37 75 73 98 0 0 -15 36 446 0 230 205 0 17 37 0 36 230 33 71 142 116
 0 0 +17 73 0 219 84 77 71 230 98 0 112 +15 219 590 0 73 208 0 17 84 0 219 139 7
3 50 112 108 0 138 -17 77 0 219 73 139 75 29 113 0 154 +17 139 0 219 77 84 85 13
8 102 0 30 -17 30 0 96 138 89 85 25 31 0 0 +17 66 0 36 63 229 80 92 155 0 67 -17
 92 0 88 32 82 78 66 155 0 229 +80 255 1 184 231 232 9000 1 1 1 1 1 1 1 1 0 FFFF
TFTFFFFFFF1 81 1 222 958 233 188 0 220 234 235 236 81 1 218 1000 184 208 237 0 2
15 220 238 82 255 1 223 951517376 81 1 237 955 233 208 0 218 239 240 241 81 1 21
5 999 184 213 240 0 212 218 242 82 1 238 874905791 81 1 240 956 233 213 0 215 23
7 234 243 81 1 212 998 184 93 234 0 210 215 244 82 1 242 875036864 81 1 234 957
 233 93 0 212 240 222 245 81 1 210 997 184 205 246 0 207 212 247 82 1 244 875167
935 81 1 246 953 233 205 0 210 248 239 249 81 1 207 996 184 105 239 0 204 210 25
0 82 1 247 669253823 81 1 239 954 233 105 0 207 246 237 251 81 1 204 995 184 141
 248 0 202 207 252 82 1 250 677249215 81 1 248 952 233 141 0 204 253 246 254 81
 1 202 994 184 143 253 0 197 204 255 82 1 252 678559936 81 1 253 951 233 143 0 2
02 256 248 257 81 1 197 993 184 132 256 0 194 202 258 82 1 255 678822075 81 1 25
6 950 233 132 0 197 196 253 259 82 1 258 679084219 80 1 233 0 260 8001 0 0 0 0 3
 5 0 0 0 FFFFTFTFFFFFFF2 81 1 196 949 233 192 0 194 193 256 261 83 255 3 259 .79
2156862745098 .819607843137255 .933333333333333 81 1 193 948 233 16 0 191 0 196
 262 83 3 261 .792156862745098 .819607843137255 .933333333333333 83 3 262 .79215
6862745098 .819607843137255 .933333333333333 79 255 15 260 SDL/TYSA_COLOUR83 3 2
57 .792156862745098 .819607843137255 .933333333333333 83 3 254 .792156862745098
 .819607843137255 .933333333333333 83 3 251 .792156862745098 .819607843137255 .9
33333333333333 83 3 249 .792156862745098 .819607843137255 .933333333333333 83 3
 245 .792156862745098 .819607843137255 .933333333333333 83 3 243 .79215686274509
8 .819607843137255 .933333333333333 83 3 241 .792156862745098 .819607843137255 .
933333333333333 81 1 235 959 233 182 0 186 222 185 263 83 3 236 .792156862745098
 .819607843137255 .933333333333333 81 1 186 990 184 182 235 0 181 191 264 81 1 1
85 960 233 180 0 181 235 0 265 83 3 263 .792156862745098 .819607843137255 .93333
3333333333 83 3 265 .792156862745098 .819607843137255 .933333333333333 82 1 264
 954269888 79 14 232 SWEntUnchanged15 216 881 0 174 213 266 17 174 0 216 174 174
 0 172 171 0 0 -15 266 821 0 267 213 228 17 267 0 266 267 267 0 170 168 0 0 -17
 170 0 189 170 170 0 267 168 0 0 +15 189 846 0 170 182 268 15 268 847 0 269 182
 0 17 269 0 268 269 269 0 167 165 0 0 -17 167 0 178 167 167 0 269 165 0 0 +15 17
8 831 0 167 141 227 17 52 0 135 131 23 49 104 107 0 128 +17 23 0 135 52 136 46 6
9 10 0 104 +17 136 0 135 23 131 57 65 144 0 0 -17 69 0 100 67 48 57 23 10 0 136
 -17 65 0 36 38 63 42 136 144 0 131 +17 38 0 36 33 65 34 130 134 0 133 +17 133 0
 129 130 54 34 59 126 0 39 -82 1 198 679346363 82 1 195 679608511 82 1 187 95695
6864 19 17 142 0 1 0 9 5 S0 74 4 CI16 index_map_offset0 0 1 dCCZ20 15 8 0 0 270
 271 220 272 273 13 185 2 0 0 0 0 0 0 0 0 0 0 0 0 81 2 270 174 274 1 0 271 0 0 0
 275 81 2 271 178 276 1 270 272 0 0 0 277 81 1 272 928 278 1 271 273 0 0 279 81
 2 273 943 280 1 272 13 0 0 0 281 81 2 13 946 282 1 273 2 0 0 0 0 80 2 282 283 2
84 9000 0 0 0 0 3 5 0 0 0 FFTFFFFFFFFFFF9 1 79 16 284 BODY_RECIPE_200180 2 280 2
85 286 9000 0 0 0 0 3 5 0 0 0 FFTFFFFFFFFFFF9 1 82 1 281 1 79 24 286 BODY_IN_LIG
HTWEIGHT_PERM80 1 278 287 288 9000 1 1 1 1 1 1 1 1 0 FFTFFFFFFFFFFF1 82 1 279 14
1282 79 10 288 BODY_MATCH80 2 276 289 290 9000 0 0 0 0 3 5 0 0 0 FFTFFFFFFFFFFF9
 1 82 1 277 95 79 30 290 LAST_BODY_MODIFYING_FEATURE_ID80 2 274 291 292 9000 0 0
 0 0 3 5 0 0 0 FFTFFFFFFFFFFT9 1 82 1 275 182 79 19 292 ENT_TIME_STAMP_200180 2
 12 293 294 9000 0 0 0 0 3 5 0 0 0 FFTFFFFFFFFFFF9 1 82 1 14 104 79 12 294 ATOM_
ID_20011 0 
