**ABCDEFGHIJKLMNOPQRSTUVWXYZabcdefghijklmnopqrstuvwxyz**************************
**PARASOLID !"#$%&'()*+,-./:;<=>?@[\]^_`{|}~0123456789**************************
**PART1;
MC=AMD64;
MC_MODEL=Intel64 Family 6 Model 69 Stepping 1, GenuineIntel;
MC_ID=unknown;
OS=Windows_NT;
OS_RELEASE=unknown;
FRU=Parasolid Version 31.1, build 284, 10- 9-2019;
APPL=SOLIDWORKS 2020-2019310;
SITE=;
USER=unknown;
FORMAT=text;
GUISE=transmit;
KEY=remote sensor house;
FILE=remote sensor house.x_t;
DATE=Thu Mar  4 00:41:44 2021;
**PART2;
SCH=SCH_3101284_31100;
USFLD_SIZE=0;
**PART3;
**END_OF_HEADER*****************************************************************
T51 : TRANSMIT FILE created by modeller version 310128423 SCH_3101284_31100_1300
6222 0 12 34 CCCCCCI4 mesh1006 0 I8 polyline1008 0 CCCCCCCDI5 owner1040 0 CCCCCC
I13 boundary_mesh1006 0 I17 boundary_polyline1008 0 CCCA16 index_map_offset0 0 1
 dA9 index_map82 0 A17 node_id_index_map82 0 A20 schema_embedding_map82 0 A5 chi
ld12 0 A14 lowest_node_id0 0 1 dA16 mesh_offset_data206 0 Z1 903 2 3 0 0 0 0 0 0
 1e3 1e-8 0 4 0 1 0 1 1 5 6 7 8 0 0 9 10 11 0 0 0 0 0 0 0 81 255 2 2 881 12 1 13
 0 0 0 0 14 70 11 CI9 list_type0 0 1 uI10 notransmit0 0 1 lCCCDCCDI12 finger_ind
ex0 0 1 dI12 finger_block1012 0 CZ3 0 4 T1 0 0 8 20 1 15 15 13 255 5 183 0 1 0 1
6 0 0 17 0 50 255 6 174 0 16 18 0 0 +-.022 0 .02 -1 0 0 0 0 1 31 255 7 702 0 19
 20 0 0 +-.0295 .002 .01 -1283953296258158e-46 1 0 -1 -1283953296258158e-46 0 .0
0175 29 255 8 556 0 11 21 0 .025 .002 0 19 8 CCCCCCCA5 owner12 0 Z9 61 0 1 17 0
 22 V0 16 255 10 150 0 ?23 0 24 25 0 0 1 18 255 11 554 0 26 0 27 8 ?1 17 255 26
 0 28 29 30 11 31 32 0 33 -18 27 449 0 34 11 35 21 ?1 17 34 0 36 37 38 27 39 40
 0 41 -18 35 247 0 42 27 43 44 ?1 29 21 451 0 27 44 8 -.025 .002 .02 29 44 249 0
 35 45 21 -.004 .02 .0025 29 45 135 0 46 47 44 -.022 0 0 18 46 118 0 48 49 50 45
 ?1 29 47 137 0 50 51 45 -.025 .02 0 18 50 120 0 52 46 53 47 ?1 29 51 138 0 53 5
4 47 .025 .02 0 18 53 121 0 55 50 56 51 ?1 29 54 140 0 56 57 51 .022 53884459162
4836e-32 0 18 56 123 0 58 53 59 54 ?1 29 57 141 0 59 60 54 .022 .017 0 18 59 124
 0 61 56 62 57 ?1 29 60 142 0 62 63 57 -.022 .017 0 18 62 125 0 64 59 65 60 ?1 2
9 63 60 0 43 66 60 -.022 0 .02 18 43 58 0 67 35 68 63 ?1 29 66 54 0 68 69 63 -.0
25 .02 .02 18 68 52 0 70 43 71 66 ?1 29 69 51 0 71 72 66 .025 .02 .02 18 71 49 0
 73 68 74 69 ?1 29 72 45 0 74 75 69 .022 538844591624836e-32 .02 18 74 43 0 76 7
1 77 72 ?1 29 75 42 0 77 78 72 .022 .017 .02 18 77 40 0 79 74 49 75 ?1 29 78 39
 0 49 80 75 -.022 .017 .02 18 49 37 0 81 77 46 78 ?1 29 80 343 0 82 83 78 -.004
 .02 .0175 18 82 296 0 84 85 86 80 ?1 29 83 344 0 86 87 80 -.023 .02 .0175 18 86
 298 0 88 82 89 83 ?1 29 87 345 0 89 90 83 -.023 .02 .0025 18 89 300 0 91 86 92
 87 ?1 29 90 347 0 65 93 87 -.004 .019 .0175 18 65 293 0 94 62 95 90 ?1 29 93 34
8 0 95 96 90 -.023 .019 .0175 18 95 295 0 97 65 98 93 ?1 29 96 349 0 98 99 93 -.
023 .019 .0025 18 98 297 0 100 95 85 96 ?1 29 99 350 0 85 101 96 -.004 .019 .002
5 18 85 299 0 102 98 82 99 ?1 29 101 537 0 103 104 99 -.034 -4365441207277735e-4
8 0 18 103 491 0 105 106 107 101 ?1 29 104 538 0 107 108 101 -.034 -436544120727
7735e-48 .02 18 107 493 0 109 103 110 104 ?1 29 108 540 0 92 111 104 -.025 .002
 0 18 92 486 0 37 89 112 108 ?1 29 111 541 0 112 113 108 -.034 .002 0 18 112 488
 0 114 92 106 111 ?1 29 113 542 0 106 115 111 -.034 .002 .02 18 106 490 0 116 11
2 103 113 ?1 29 115 645 0 117 118 113 .034 436544120727774e-47 .02 18 117 599 0
 119 120 121 115 ?1 29 118 646 0 121 122 115 .034 436544120727774e-47 0 18 121 6
01 0 123 117 0 118 ?1 29 122 648 0 110 124 118 .025 .002 .02 18 110 594 0 29 107
 125 122 ?1 29 124 649 0 125 126 122 .034 .002 .02 18 125 596 0 127 110 120 124
 ?1 29 126 650 0 120 0 124 .034 .002 0 18 120 598 0 128 125 117 126 ?1 17 128 0
 129 130 131 120 132 133 0 30 -15 255 129 613 0 131 134 0 17 130 0 129 135 128 1
25 30 136 0 137 +17 131 0 129 128 135 121 138 139 0 0 -17 132 0 140 141 31 121 1
28 133 0 131 +16 133 581 0 ?132 142 143 144 0 0 1 17 30 0 28 26 137 120 130 136
 0 31 -15 28 620 0 29 145 0 17 137 0 28 30 29 125 146 143 0 0 -16 136 574 0 ?130
 143 32 147 0 0 1 17 31 0 140 132 148 120 26 32 0 0 +15 140 85 0 149 150 0 17 14
8 0 140 31 151 11 55 152 0 0 -16 32 578 0 ?31 136 153 154 0 0 1 16 153 566 0 ?33
 32 139 155 0 0 1 30 255 154 642 0 32 155 147 0 +.034 .002 0 1 1283953296258158e
-46 963735264431559e-31 30 155 643 0 153 156 154 0 +.025 .002 -867361737988404e-
33 0 0 -1 30 147 641 0 136 154 157 0 +.034 .002 0 0 0 1 30 157 640 0 143 147 158
 0 +.034 .002 .02 -1 -1283953296258158e-46 0 16 143 570 0 ?146 133 136 157 0 0 1
 30 158 637 0 139 157 159 0 +.034 436544120727774e-47 0 0 0 1 16 139 588 0 ?138
 153 19 158 0 0 1 30 159 634 0 142 158 144 0 +.034 .002 .02 1283953296258158e-46
 -1 0 16 142 577 0 ?135 160 133 159 0 0 1 30 144 633 0 133 159 161 0 +.034 .002
 0 1283953296258158e-46 -1 0 30 161 535 0 162 144 163 0 +-.025 .002 0 0 0 1 16 1
62 458 0 ?41 40 160 161 0 0 1 30 163 534 0 40 161 164 0 +-.034 .002 .02 -1 -1283
953296258158e-46 0 16 40 470 0 ?39 165 162 163 0 0 1 30 164 533 0 165 163 166 0
 +-.034 .002 0 0 0 -1 16 165 466 0 ?167 168 40 164 0 0 1 30 166 532 0 168 164 16
9 0 +-.034 .002 0 1 1283953296258158e-46 0 16 168 462 0 ?170 171 165 166 0 0 1 3
0 169 529 0 160 166 172 0 +-.034 -4365441207277735e-48 0 0 0 -1 16 160 480 0 ?17
3 162 142 169 0 0 1 30 172 526 0 174 169 175 0 +-.034 .002 0 1283953296258158e-4
6 -1 0 16 174 469 0 ?176 177 171 172 0 0 1 30 175 525 0 171 172 178 0 +-.034 .00
2 .02 1283953296258158e-46 -1 0 16 171 473 0 ?179 174 168 175 0 0 1 31 178 413 0
 177 175 180 0 +.017 .02 .01 -208166817117217e-30 1 0 -1 -208166817117217e-30 0
 .0025 16 177 388 0 ?181 182 174 178 0 0 1 31 180 412 0 182 178 183 0 +.017 .017
 .01 -1577021341797095e-31 1 0 -1 -1577021341797095e-31 0 .0025 16 182 384 0 ?18
4 185 177 180 0 0 1 30 183 342 0 186 180 187 0 +-.004 .019 .0175 0 0 -1 16 186 2
65 0 ?188 189 190 183 0 0 1 30 187 341 0 189 183 191 0 +-.023 .019 .0025 -1 -182
6024711554535e-31 0 16 189 277 0 ?192 193 186 187 0 0 1 30 191 340 0 193 187 194
 0 +-.023 .019 .0175 0 0 1 16 193 273 0 ?195 196 189 191 0 0 1 30 194 339 0 196
 191 197 0 +-.023 .019 .0175 1 1826024711554535e-31 0 16 196 269 0 ?198 199 193
 194 0 0 1 30 197 338 0 185 194 200 0 +-.004 .02 .0175 0 0 -1 16 185 281 0 ?42 2
01 182 197 0 0 1 30 200 337 0 201 197 202 0 +-.023 .02 .0025 -1 -182602471155453
5e-31 0 16 201 284 0 ?203 204 185 200 0 0 1 30 202 336 0 204 200 205 0 +-.023 .0
2 .0175 0 0 1 16 204 287 0 ?206 190 201 202 0 0 1 30 205 335 0 190 202 207 0 +-.
023 .02 .0175 1 1826024711554535e-31 0 16 190 290 0 ?208 186 204 205 0 0 1 30 20
7 334 0 209 205 210 0 +-.004 .019 .0175 -867361737988404e-31 1 0 16 209 272 0 ?8
4 211 212 207 0 0 1 30 210 333 0 212 207 213 0 +-.023 .019 .0175 -86736173798840
4e-31 1 0 16 212 276 0 ?88 209 214 210 0 0 1 30 213 332 0 214 210 215 0 +-.023 .
019 .0025 -867361737988404e-31 1 0 16 214 280 0 ?91 212 199 213 0 0 1 30 215 331
 0 199 213 216 0 +-.004 .019 .0025 -867361737988404e-31 1 0 16 199 268 0 ?217 21
4 196 215 0 0 1 30 216 7 0 218 215 219 0 +-.022 0 .02 0 1 0 16 218 5 0 ?220 221
 222 216 0 0 1 30 219 11 0 221 216 223 0 +.022 .017 .02 1 1577021341797095e-31 0
 16 221 9 0 ?79 224 218 219 0 0 1 30 223 15 0 224 219 225 0 +.022 53884459162483
6e-32 .02 0 -1 0 16 224 13 0 ?76 226 221 223 0 0 1 30 225 19 0 226 223 227 0 +.0
22 538844591624836e-32 .02 1 2449293598294705e-31 0 16 226 17 0 ?119 228 224 225
 0 0 1 30 227 23 0 228 225 229 0 +.025 612323399573677e-32 .02 -693889390390723e
-30 1 0 16 228 558 0 ?73 230 226 227 0 0 1 30 229 27 0 230 227 231 0 +.025 .02 .
02 -1 -208166817117217e-30 0 16 230 25 0 ?70 232 228 229 0 0 1 30 231 31 0 232 2
29 233 0 +-.025 -385185988877447e-48 .02 0 -1 0 16 232 29 0 ?234 235 230 231 0 0
 1 30 233 35 0 235 231 236 0 +-.025 -385185988877447e-48 .02 1 1283953296258158e
-46 0 16 235 33 0 ?67 237 232 233 0 0 1 30 236 134 0 211 233 238 0 +-.022 0 0 0
 1 0 16 211 114 0 ?239 240 209 236 0 0 1 30 238 133 0 240 236 241 0 +.022 .017 0
 1 1577021341797095e-31 0 16 240 110 0 ?61 242 211 238 0 0 1 30 241 132 0 242 23
8 243 0 +.022 538844591624836e-32 0 0 -1 0 16 242 106 0 ?58 244 240 241 0 0 1 30
 243 131 0 244 241 245 0 +.022 538844591624836e-32 0 1 2449293598294705e-31 0 16
 244 102 0 ?123 152 242 243 0 0 1 30 245 130 0 152 243 246 0 +.025 6123233995736
77e-32 0 -693889390390723e-30 1 0 16 152 555 0 ?55 247 244 245 0 0 1 30 246 129
 0 247 245 248 0 +.025 .02 0 -1 -208166817117217e-30 0 16 247 94 0 ?52 249 152 2
46 0 0 1 30 248 128 0 249 246 250 0 +-.025 -385185988877447e-48 0 0 -1 0 16 249
 90 0 ?251 222 247 248 0 0 1 30 250 127 0 222 248 252 0 +-.025 -385185988877447e
-48 0 1 1283953296258158e-46 0 16 222 86 0 ?48 218 249 250 0 0 1 30 252 175 0 23
7 250 253 0 +-.022 0 .02 0 0 -1 16 237 143 0 ?254 255 235 252 0 0 1 30 253 177 0
 255 252 256 0 +-.025 .02 .02 0 0 -1 16 255 145 0 ?257 258 237 253 0 0 1 30 256
 178 0 258 253 259 0 +.025 .02 .02 0 0 -1 16 258 146 0 ?260 261 255 256 0 0 1 30
 259 180 0 261 256 262 0 +.022 538844591624836e-32 .02 0 0 -1 16 261 148 0 ?263
 24 258 259 0 0 1 30 262 181 0 24 259 25 0 +.022 .017 .02 0 0 -1 16 24 149 0 ?26
4 10 261 262 0 0 1 30 25 182 0 10 262 20 0 +-.022 .017 .02 0 0 -1 31 20 696 0 26
5 25 7 0 +.0295 .002 .01 1283953296258158e-46 -1 0 1 1283953296258158e-46 0 .001
75 16 265 744 0 ?266 19 267 20 0 0 1 17 266 0 268 266 266 0 269 265 0 0 +16 19 7
23 0 ?270 139 265 7 0 0 1 16 267 724 0 ?271 265 272 273 0 0 1 17 271 0 274 271 2
71 0 275 267 0 0 +16 272 748 0 ?276 267 0 156 0 0 1 31 273 779 0 267 0 156 0 +-.
0295 -3787662223961565e-48 .01 1283953296258158e-46 -1 0 1 1283953296258158e-46
 0 .00175 31 156 777 0 272 273 155 0 +.0295 3787662223961565e-48 .01 12839532962
58158e-46 -1 0 1 1283953296258158e-46 0 .00175 17 276 0 277 276 276 0 278 272 0
 0 +15 277 754 0 276 279 280 17 278 0 281 278 278 0 276 272 0 0 -15 281 713 0 27
8 282 283 14 255 282 160 284 ?285 286 281 5 287 -0 0 285 286 22 15 283 159 0 123
 282 0 17 123 0 283 138 263 121 141 244 0 132 +17 138 0 283 288 123 117 131 139
 0 0 +17 263 0 283 123 288 56 289 261 0 141 +17 141 0 140 290 132 56 123 244 0 0
 -17 290 0 140 64 141 59 58 242 0 0 -17 64 0 140 149 290 62 61 240 0 23 -17 58 0
 291 289 264 56 290 242 0 263 +15 291 161 0 58 286 0 17 289 0 291 292 58 74 263
 261 0 288 -17 264 0 291 58 292 59 293 24 0 290 +17 292 0 291 264 289 77 76 224
 0 0 -17 293 0 294 81 61 77 264 24 0 292 -15 294 163 0 61 295 0 17 81 0 294 23 2
93 49 79 221 0 220 -17 61 0 294 293 23 59 64 240 0 264 +17 23 0 294 61 81 62 296
 10 0 239 +17 296 0 297 298 239 49 23 10 0 0 -17 239 0 297 296 254 62 149 211 0
 0 +15 297 165 0 239 16 0 17 254 0 297 239 298 46 299 237 0 149 +17 149 0 140 10
5 64 46 239 211 0 0 -17 105 0 140 114 149 103 48 222 0 176 -17 114 0 140 170 105
 112 176 174 0 167 -17 48 0 300 299 173 46 105 222 0 254 +17 176 0 301 302 167 1
03 114 174 0 173 +15 301 505 0 302 303 0 17 302 0 301 116 176 107 173 160 0 0 -1
7 167 0 301 176 116 112 38 165 0 304 +17 173 0 300 48 109 103 302 160 0 0 +15 30
0 151 0 48 305 0 17 109 0 300 173 299 107 67 235 0 179 -17 299 0 300 109 48 43 2
54 237 0 298 -17 67 0 306 220 179 43 109 235 0 299 +17 179 0 306 67 39 107 116 1
71 0 302 +15 306 4 0 220 307 0 17 39 0 306 179 234 106 34 40 0 0 +17 116 0 301 1
67 302 106 179 171 0 38 -17 38 0 36 34 304 106 167 165 0 39 -15 36 512 0 37 308
 0 17 304 0 36 38 37 112 170 168 0 0 -17 37 0 36 304 34 92 41 162 0 170 -17 170
 0 140 309 114 92 304 168 0 251 +17 309 0 140 151 170 50 251 249 0 0 -17 251 0 3
10 41 257 92 309 249 0 0 +15 310 153 0 251 311 0 17 41 0 310 312 251 27 37 162 0
 234 +17 257 0 310 251 312 50 313 255 0 309 +17 312 0 310 257 41 68 234 232 0 0
 -17 313 0 314 315 52 68 257 255 0 312 -15 314 155 0 52 316 0 17 315 0 314 260 3
13 71 70 230 0 0 -17 52 0 314 313 260 50 151 247 0 257 +17 260 0 314 52 315 53 3
17 258 0 151 +17 151 0 140 148 309 53 52 247 0 0 -17 317 0 318 319 55 71 260 258
 0 315 -15 318 157 0 319 285 0 17 319 0 318 33 317 110 73 228 0 0 -17 55 0 318 3
17 33 53 148 152 0 260 +17 33 0 318 55 319 11 29 153 0 148 +17 29 0 28 137 26 11
0 33 153 0 146 -17 146 0 306 73 127 110 137 143 0 319 +17 73 0 306 70 146 71 319
 228 0 317 +17 127 0 306 146 119 125 135 142 0 130 -17 119 0 306 127 76 117 288
 226 0 135 +17 135 0 129 131 130 117 127 142 0 138 +17 76 0 306 119 79 74 292 22
4 0 289 +17 288 0 283 263 138 74 119 226 0 0 -17 79 0 306 76 220 77 81 221 0 293
 +17 220 0 306 79 67 49 298 218 0 296 +17 298 0 297 254 296 43 220 218 0 0 -17 7
0 0 306 234 73 68 315 230 0 313 +17 234 0 306 39 70 27 312 232 0 0 +14 285 158 3
20 ?316 282 318 5 321 -0 0 316 282 22 81 1 320 883 322 285 323 0 284 324 325 14
 316 156 324 ?311 285 326 5 327 -0 0 311 285 22 50 321 170 0 285 327 287 0 +.025
 612323399573677e-32 .02 -1 -693889390390723e-30 0 693889390390723e-30 -1 0 13 2
2 62 0 0 0 0 0 0 9 16 14 16 166 328 ?295 0 297 5 6 -0 0 295 0 22 81 1 328 885 32
2 16 329 0 324 330 331 14 295 164 330 ?286 16 332 5 18 -0 0 286 16 22 81 1 330 8
86 322 295 333 0 328 334 335 14 286 162 334 ?282 295 291 5 336 -0 0 282 295 22 1
5 332 379 0 184 295 294 50 18 173 0 295 336 6 0 +.022 .017 .02 -1577021341797095
e-31 1 0 -1 -1577021341797095e-31 0 50 336 172 0 286 287 18 0 +.022 538844591624
836e-32 .02 1 0 0 0 0 -1 50 287 171 0 282 321 336 0 +.022 538844591624836e-32 .0
2 -2449293598294705e-31 1 0 -1 -2449293598294705e-31 0 17 184 0 332 184 184 0 33
7 182 0 0 +17 337 0 338 337 337 0 184 182 0 0 -15 338 395 0 337 339 0 14 339 391
 340 ?303 341 342 5 343 -0 0 303 341 22 81 1 340 888 322 339 344 0 334 345 346 1
4 303 502 345 ?308 339 301 5 347 +0 0 308 339 22 14 341 317 348 ?339 349 350 5 3
51 -0 0 339 349 22 15 342 394 0 181 339 338 51 255 343 409 0 339 347 351 0 +.017
 -3469446951953615e-33 .01 -208166817117217e-30 1 0 .0025 -1 -208166817117217e-3
0 0 50 347 520 0 303 352 343 0 +-.034 .002 0 -1 -1283953296258158e-46 0 12839532
96258158e-46 -1 0 50 351 330 0 341 343 353 0 +-356531324931023e-32 .019 0 182602
4711554535e-31 -1 0 1 1826024711554535e-31 0 50 353 328 0 354 351 355 0 +-.023 .
019 .0175 0 0 1 1 0 0 14 354 305 356 ?357 358 359 5 353 -0 0 357 358 22 50 355 3
27 0 357 353 360 0 +-.023 .019 .0175 -1 -867361737988404e-31 0 867361737988404e-
31 -1 0 14 357 309 361 ?349 354 362 5 355 -0 0 349 354 22 50 360 326 0 349 355 3
63 0 +-.023 .019 .0025 0 0 -1 -1 0 0 14 349 313 364 ?341 357 365 5 360 -0 0 341
 357 22 50 363 325 0 358 360 366 0 +-.004 .019 .0175 1 867361737988404e-31 0 -86
7361737988404e-31 1 0 14 358 301 367 ?354 150 368 5 363 -0 0 354 150 22 50 366 3
 0 307 363 369 0 +0 0 .02 0 0 1 1 0 0 14 307 1 370 ?150 305 306 5 366 +0 0 150 3
05 22 50 369 126 0 150 366 371 0 +0 0 0 0 0 1 1 0 0 14 150 84 372 ?358 307 140 5
 369 -0 0 358 307 22 50 371 167 0 305 369 373 0 +-.025 -385185988877447e-48 .02
 -1283953296258158e-46 1 0 -1 -1283953296258158e-46 0 14 305 152 374 ?307 311 37
5 5 371 -0 0 307 311 22 50 373 168 0 311 371 327 0 +-.025 -385185988877447e-48 .
02 1 0 0 0 0 -1 14 311 154 376 ?305 316 310 5 373 -0 0 305 316 22 50 327 169 0 3
16 373 321 0 +.025 .02 .02 208166817117217e-30 -1 0 1 208166817117217e-30 0 81 1
 376 898 322 311 377 0 374 378 379 80 255 1 322 380 381 9000 1 1 1 1 1 1 1 1 0 F
FFFTFTFFFFFFF1 81 1 377 814 382 311 0 376 383 384 385 81 1 374 897 322 305 384 0
 372 376 386 81 1 378 899 322 134 387 0 376 388 389 82 255 1 379 1798832276 14 1
34 610 378 ?145 308 129 5 390 +0 0 145 308 22 81 1 387 826 382 134 0 378 391 392
 393 81 1 388 900 322 308 391 0 378 394 395 82 1 389 468517012 14 308 510 388 ?1
34 303 396 5 352 +0 0 134 303 22 81 1 391 825 382 308 0 388 397 387 398 81 1 394
 901 322 145 392 0 388 399 400 82 1 395 450625690 14 145 618 394 ?279 134 268 5
 401 -0 0 279 134 22 81 1 392 827 382 145 0 394 387 402 403 81 1 399 902 322 279
 402 0 394 404 405 82 1 400 461832346 14 279 751 399 ?406 145 277 5 407 -0 0 406
 145 22 81 1 402 828 382 279 0 399 392 408 409 81 1 404 903 322 406 408 0 399 0
 410 82 1 405 1528823962 14 406 732 404 ?0 279 411 5 412 -0 0 0 279 22 81 1 408
 829 382 406 0 404 402 0 413 82 1 410 1522204826 80 1 382 0 414 8001 0 0 0 0 3 5
 0 0 0 FFFFTFTFFFFFFF2 83 255 3 413 .792156862745098 .819607843137255 .933333333
333333 79 255 15 414 SDL/TYSA_COLOUR15 411 735 0 270 406 274 51 412 774 0 406 0
 407 0 +-.0295 .02 .01 1283953296258158e-46 -1 0 .00175 1 1283953296258158e-46 0
 51 407 771 0 279 412 401 0 +.0295 .02 .01 1283953296258158e-46 -1 0 .00175 1 12
83953296258158e-46 0 50 401 631 0 145 407 390 0 +-2567906592516315e-49 .002 0 12
83953296258158e-46 -1 0 1 1283953296258158e-46 0 50 390 628 0 134 401 352 0 +.03
4 .002 0 1 1283953296258158e-46 0 -1283953296258158e-46 1 0 50 352 523 0 308 390
 347 0 +-2567906592516315e-49 .002 0 -1283953296258158e-46 1 0 -1 -1283953296258
158e-46 0 17 270 0 411 270 270 0 415 19 0 0 +15 274 736 0 271 406 0 17 415 0 396
 415 415 0 270 19 0 0 -15 396 701 0 415 308 36 83 3 409 .792156862745098 .819607
843137255 .933333333333333 83 3 403 .792156862745098 .819607843137255 .933333333
333333 15 268 694 0 266 145 28 81 1 397 824 382 303 0 345 344 391 416 83 3 398 .
792156862745098 .819607843137255 .933333333333333 81 1 345 889 322 303 397 0 340
 348 417 81 1 344 823 382 339 0 340 418 397 419 83 3 416 .792156862745098 .81960
7843137255 .933333333333333 81 1 418 822 382 341 0 348 420 344 421 83 3 419 .792
156862745098 .819607843137255 .933333333333333 81 1 348 890 322 341 418 0 345 35
6 422 81 1 420 821 382 349 0 364 423 418 424 83 3 421 .792156862745098 .81960784
3137255 .933333333333333 81 1 364 893 322 349 420 0 361 367 425 81 1 423 820 382
 357 0 361 426 420 427 83 3 424 .792156862745098 .819607843137255 .9333333333333
33 81 1 361 892 322 357 423 0 356 364 428 81 1 426 819 382 354 0 356 429 423 430
 83 3 427 .792156862745098 .819607843137255 .933333333333333 81 1 356 891 322 35
4 426 0 348 361 431 81 1 429 818 382 358 0 367 432 426 433 83 3 430 .79215686274
5098 .819607843137255 .933333333333333 81 1 367 894 322 358 429 0 364 370 434 81
 1 432 817 382 150 0 372 435 429 436 83 3 433 .792156862745098 .819607843137255
 .933333333333333 81 1 372 896 322 150 432 0 370 374 437 81 1 435 816 382 307 0
 370 384 432 438 83 3 436 .792156862745098 .819607843137255 .933333333333333 81
 1 370 895 322 307 435 0 367 372 439 81 1 384 815 382 305 0 374 377 435 440 83 3
 438 .792156862745098 .819607843137255 .933333333333333 83 3 440 .79215686274509
8 .819607843137255 .933333333333333 82 1 439 1798766740 82 1 437 1800798356 82 1
 434 -2082799502 82 1 431 -2083192718 82 1 428 -2083061646 82 1 425 -2082930574
 82 1 422 -2089746318 82 1 417 457310356 83 3 393 .792156862745098 .819607843137
255 .933333333333333 82 1 386 1798635674 81 1 383 813 382 316 0 324 323 377 441
 83 3 385 .792156862745098 .819607843137255 .933333333333333 81 1 324 884 322 31
6 383 0 320 328 442 81 1 323 812 382 285 0 320 443 383 444 83 3 441 .79215686274
5098 .819607843137255 .933333333333333 81 1 443 811 382 282 0 284 445 323 446 83
 3 444 .792156862745098 .819607843137255 .933333333333333 81 1 284 882 322 282 4
43 0 0 320 447 81 1 445 810 382 286 0 334 333 443 448 83 3 446 .792156862745098
 .819607843137255 .933333333333333 81 1 334 887 322 286 445 0 330 340 449 81 1 3
33 809 382 295 0 330 329 445 450 83 3 448 .792156862745098 .819607843137255 .933
333333333333 81 1 329 808 382 16 0 328 0 333 451 83 3 450 .792156862745098 .8196
07843137255 .933333333333333 83 3 451 .792156862745098 .819607843137255 .9333333
33333333 82 1 449 -2111569809 82 1 447 1799356570 82 1 442 -2112356230 79 14 381
 SWEntUnchanged15 375 706 0 275 305 300 17 275 0 375 275 275 0 271 267 0 0 -15 3
68 304 0 42 358 0 17 42 0 368 102 84 35 452 185 0 217 +17 102 0 368 453 42 85 21
7 199 0 454 -17 84 0 368 42 453 82 94 209 0 208 +17 452 0 455 456 457 82 42 185
 0 0 -17 217 0 365 203 454 35 102 199 0 457 +15 365 316 0 203 349 0 17 203 0 365
 100 217 89 457 201 0 458 +17 454 0 365 217 100 85 192 189 0 188 -17 457 0 455 4
52 458 35 203 201 0 0 -15 455 245 0 457 316 314 17 458 0 455 457 456 89 206 204
 0 0 -17 456 0 455 458 452 86 208 190 0 0 -17 206 0 362 97 91 86 458 204 0 456 +
15 362 312 0 206 357 0 17 97 0 362 459 206 95 88 212 0 195 -17 91 0 362 206 459
 89 100 214 0 203 +17 459 0 362 91 97 98 195 193 0 192 -17 100 0 365 454 203 98
 91 214 0 459 -17 195 0 350 198 192 95 459 193 0 460 +17 192 0 350 195 188 98 45
4 189 0 0 +15 350 319 0 188 341 0 17 188 0 350 192 198 85 453 186 0 0 +17 198 0
 350 188 195 65 460 196 0 0 +17 453 0 368 84 102 65 188 186 0 198 -17 460 0 359
 88 94 95 198 196 0 0 -15 359 308 0 208 354 0 17 88 0 359 208 460 86 97 212 0 20
6 +17 94 0 359 460 208 65 84 209 0 453 -17 208 0 359 94 88 82 456 190 0 452 +17
 181 0 342 181 181 0 461 177 0 0 +17 461 0 326 461 461 0 181 177 0 0 -15 326 373
 0 461 316 455 82 1 346 1185742970 82 1 335 -2111307654 82 1 331 -2111045521 82
 1 325 1799225492 15 280 755 0 269 279 0 17 269 0 280 269 269 0 266 265 0 0 -19
 17 184 0 1 0 9 5 S0 74 4 CI16 index_map_offset0 0 1 dCCZ20 15 8 0 0 404 462 463
 464 465 13 408 2 0 0 0 0 0 0 0 0 0 0 0 0 81 2 462 662 466 1 0 463 0 0 0 467 81
 2 463 674 468 1 462 464 0 0 0 469 81 2 464 686 470 1 463 465 0 0 0 0 81 1 465 7
96 471 1 464 13 0 0 472 81 2 13 807 473 1 465 2 0 0 0 474 80 2 473 475 476 9000
 0 0 0 0 3 5 0 0 0 FFTFFFFFFFFFFF9 1 82 1 474 1 79 24 476 BODY_IN_LIGHTWEIGHT_PE
RM80 1 471 477 478 9000 1 1 1 1 1 1 1 1 0 FFTFFFFFFFFFFF1 82 1 472 1141327 79 10
 478 BODY_MATCH80 2 470 479 480 9000 0 0 0 0 3 5 0 0 0 FFTFFFFFFFFFFF9 1 79 16 4
80 BODY_RECIPE_200180 2 468 481 482 9000 0 0 0 0 3 5 0 0 0 FFTFFFFFFFFFFF9 1 82
 1 469 106 79 30 482 LAST_BODY_MODIFYING_FEATURE_ID80 2 466 483 484 9000 0 0 0 0
 3 5 0 0 0 FFTFFFFFFFFFFT9 1 82 1 467 131 79 19 484 ENT_TIME_STAMP_200180 2 12 4
85 486 9000 0 0 0 0 3 5 0 0 0 FFTFFFFFFFFFFF9 1 82 1 14 105 79 12 486 ATOM_ID_20
011 0 
