**ABCDEFGHIJKLMNOPQRSTUVWXYZabcdefghijklmnopqrstuvwxyz**************************
**PARASOLID !"#$%&'()*+,-./:;<=>?@[\]^_`{|}~0123456789**************************
**PART1;
MC=AMD64;
MC_MODEL=Intel64 Family 6 Model 69 Stepping 1, GenuineIntel;
MC_ID=unknown;
OS=Windows_NT;
OS_RELEASE=unknown;
FRU=Parasolid Version 31.1, build 284, 10- 9-2019;
APPL=SOLIDWORKS 2020-2019310;
SITE=;
USER=unknown;
FORMAT=text;
GUISE=transmit;
KEY=slot Inductive sensor;
FILE=slot Inductive sensor.x_t;
DATE=Sat Mar  6 23:52:58 2021;
**PART2;
SCH=SCH_3101284_31100;
USFLD_SIZE=0;
**PART3;
**END_OF_HEADER*****************************************************************
T51 : TRANSMIT FILE created by modeller version 310128423 SCH_3101284_31100_1300
6222 0 12 34 CCCCCCI4 mesh1006 0 I8 polyline1008 0 CCCCCCCDI5 owner1040 0 CCCCCC
I13 boundary_mesh1006 0 I17 boundary_polyline1008 0 CCCA16 index_map_offset0 0 1
 dA9 index_map82 0 A17 node_id_index_map82 0 A20 schema_embedding_map82 0 A5 chi
ld12 0 A14 lowest_node_id0 0 1 dA16 mesh_offset_data206 0 Z1 889 2 3 0 0 0 0 0 0
 1e3 1e-8 0 4 0 1 0 1 1 5 6 7 8 0 0 9 10 11 0 0 0 0 0 0 0 81 255 2 2 853 12 1 13
 0 0 0 0 14 70 11 CI9 list_type0 0 1 uI10 notransmit0 0 1 lCCCDCCDI12 finger_ind
ex0 0 1 dI12 finger_block1012 0 CZ3 0 4 T1 0 0 10 20 1 15 15 13 255 5 99 0 1 0 1
6 0 0 17 0 50 255 6 94 0 18 19 0 0 +.035 -.02 -.002 1 0 0 0 0 -1 30 255 7 98 0 2
0 21 0 0 +.035 .02 -.002 0 0 1 29 255 8 639 0 11 22 0 .02775 -.02 .0141183 19 8
 CCCCCCCA5 owner12 0 Z9 33 0 1 17 0 23 V0 16 255 10 81 0 ?24 0 20 21 0 0 1 18 25
5 11 637 0 25 0 26 8 ?1 17 255 25 0 27 28 29 11 30 31 0 32 +18 26 612 0 33 11 34
 22 ?1 17 33 0 35 36 37 26 38 39 0 40 +18 34 496 0 41 26 42 43 ?1 29 22 614 0 26
 43 8 -.02775 -.018 .0141183 29 43 498 0 34 44 22 -.02075 .00925 -.002 29 44 478
 0 42 45 43 -.02075 -.00925 0 18 42 476 0 46 34 47 44 ?1 29 45 156 0 47 48 44 -.
035 -.0172634 -.002 18 47 154 0 49 42 50 45 ?1 29 48 77 0 51 52 45 -.035 .02 0 1
8 51 68 0 24 53 54 48 ?1 29 52 78 0 54 55 48 .035 .02 0 18 54 69 0 56 51 57 52 ?
1 29 55 26 0 50 58 52 -.035 .02 -.002 18 50 24 0 59 47 53 55 ?1 29 58 23 0 53 60
 55 .035 .02 -.002 18 53 21 0 61 50 51 58 ?1 29 60 332 0 62 63 58 .035 -.018 736
6e-7 18 62 279 0 64 65 66 60 ?1 29 63 333 0 66 67 60 -.035 -.018 7366e-7 18 66 2
81 0 68 62 69 63 ?1 29 67 334 0 65 70 63 .035 -.0172634 -867361737988404e-33 18
 65 286 0 71 72 62 67 ?1 29 70 335 0 72 73 67 -.035 -.0172634 -867361737988404e-
33 18 72 283 0 74 75 65 70 ?1 29 73 336 0 57 76 70 .035 -.0172634 -.002 18 57 28
4 0 77 54 75 73 ?1 29 76 338 0 75 78 73 -.035 -.02 .00073659999999999 18 75 280
 0 79 57 72 76 ?1 29 78 431 0 80 81 76 .035 -.02 .00073659999999999 18 80 374 0
 82 83 84 78 ?1 29 81 432 0 83 85 78 .035 -.018 .023 18 83 370 0 86 87 80 81 ?1
 29 85 433 0 87 88 81 -.035 -.018 .023 18 87 373 0 89 90 83 85 ?1 29 88 434 0 90
 91 85 .035 -.02 .023 18 90 371 0 92 69 87 88 ?1 29 91 435 0 69 93 88 -.035 -.02
 .023 18 69 372 0 94 66 90 91 ?1 29 93 586 0 84 95 91 .02075 -.00925 -.002 18 84
 533 0 96 80 97 93 ?1 29 95 588 0 98 99 93 .02075 -.00925 0 18 98 536 0 100 101
 102 95 ?1 29 99 589 0 102 103 95 .02075 .00925 -.002 18 102 535 0 104 98 105 99
 ?1 29 103 590 0 105 106 99 .02075 .00925 4225031457058345e-34 18 105 538 0 107
 102 108 103 ?1 29 106 591 0 97 109 103 -.02075 -.00925 -.002 18 97 534 0 110 84
 101 106 ?1 29 109 593 0 101 111 106 -.02075 .00925 4225031457058345e-34 18 101
 532 0 112 97 98 109 ?1 29 111 726 0 113 114 109 .02775 -.018 .0141183 18 113 67
4 0 29 115 116 111 ?1 29 114 727 0 116 117 111 .02775 -.02 .0096183 18 116 673 0
 118 113 119 114 ?1 29 117 728 0 119 120 114 .02775 -.018 .0096183 18 119 676 0
 121 116 0 117 ?1 29 120 729 0 108 122 117 -.02775 -.02 .0141183 18 108 672 0 28
 105 123 120 ?1 29 122 730 0 123 124 120 -.02775 -.02 .0096183 18 123 675 0 125
 108 115 122 ?1 29 124 731 0 115 0 122 -.02775 -.018 .0096183 18 115 670 0 126 1
23 113 124 ?1 17 126 0 127 125 121 115 128 129 0 37 -15 255 127 699 0 121 130 0
 17 125 0 127 118 126 123 37 131 0 132 +17 121 0 127 126 118 119 133 134 0 135 +
17 128 0 136 137 38 119 126 129 0 0 +16 129 668 0 ?128 39 138 139 0 0 1 17 37 0
 35 33 132 115 125 131 0 38 -15 35 695 0 33 140 0 17 132 0 35 37 36 123 141 142
 0 143 -16 131 665 0 ?125 144 145 146 0 0 1 17 38 0 136 128 147 115 33 39 0 0 -1
5 136 613 0 38 16 0 17 147 0 136 38 137 26 29 148 0 0 -16 39 660 0 ?33 142 129 1
49 0 0 1 16 142 666 0 ?141 145 39 150 0 0 1 31 255 149 719 0 39 139 150 0 +-.027
75 -.018 .0118683 0 1 3469446951953615e-30 0 -3469446951953615e-30 1 .00225 30 1
39 720 0 129 151 149 0 +-.02775 -.018 .0096183 1 0 0 31 150 718 0 142 149 152 0
 +-.02775 -.02 .0118683 0 1 3469446951953615e-30 0 -3469446951953615e-30 1 .0022
5 30 152 717 0 145 150 146 0 +-.02775 -.018 .0141183 0 1 3469446951953615e-30 16
 145 667 0 ?40 131 142 152 0 0 1 30 146 716 0 131 152 153 0 --.02775 -.018 .0096
183 0 1 3469446951953615e-30 31 153 715 0 144 146 154 0 +.02775 -.018 .0118683 0
 1 3469446951953615e-30 0 -3469446951953615e-30 1 .00225 16 144 659 0 ?135 155 1
31 153 0 0 1 31 154 714 0 155 153 156 0 +.02775 -.02 .0118683 0 1 34694469519536
15e-30 0 -3469446951953615e-30 1 .00225 16 155 662 0 ?157 134 144 154 0 0 1 30 1
56 713 0 134 154 158 0 +.02775 -.018 .0096183 0 1 3469446951953615e-30 16 134 66
3 0 ?121 31 155 156 0 0 1 30 158 712 0 31 156 159 0 -.02775 -.018 .0141183 0 1 3
469446951953615e-30 16 31 664 0 ?25 160 134 158 0 0 1 30 159 585 0 160 158 161 0
 +-.02075 -.00925 0 1 183697019872103e-30 0 16 160 520 0 ?100 162 31 159 0 0 1 3
0 161 584 0 162 159 163 0 +-.02075 -.00925 -.002 1 183697019872103e-30 0 16 162
 531 0 ?164 165 160 161 0 0 1 30 163 583 0 165 161 166 0 +-.02075 .00925 -.002 1
 183697019872103e-30 0 16 165 523 0 ?104 167 162 163 0 0 1 30 166 582 0 167 163
 168 0 +-.02075 .00925 4225031457058345e-34 1 183697019872103e-30 0 16 167 530 0
 ?169 170 165 166 0 0 1 31 168 581 0 170 166 171 0 +-.02075 -381171316234613e-32
 4225031457058345e-34 0 0 1 1 0 0 .00925 16 170 522 0 ?46 172 167 168 0 0 1 31 1
71 580 0 172 168 173 0 +-.02075 -381171316234613e-32 -.002 0 0 1 1 0 0 .00925 16
 172 528 0 ?174 175 170 171 0 0 1 30 173 579 0 175 171 176 0 +-.02075 -.00925 0
 0 0 1 16 175 529 0 ?177 178 172 173 0 0 1 30 176 578 0 178 173 179 0 --.02075 .
00925 0 0 0 1 16 178 527 0 ?180 181 175 176 0 0 1 31 179 577 0 181 176 182 0 +.0
2075 381171316234613e-32 4225031457058345e-34 0 0 1 1 0 0 .00925 16 181 521 0 ?1
83 184 178 179 0 0 1 31 182 576 0 184 179 185 0 +.02075 381171316234613e-32 -.00
2 0 0 1 1 0 0 .00925 16 184 524 0 ?186 187 181 182 0 0 1 30 185 575 0 187 182 18
8 0 +.02075 .00925 0 0 0 1 16 187 525 0 ?107 189 184 185 0 0 1 30 188 574 0 189
 185 190 0 -.02075 -.00925 0 0 0 1 16 189 526 0 ?191 192 187 188 0 0 1 30 190 42
8 0 193 188 194 0 +.035 -.02 .023 0 1 3491481338843135e-30 16 193 366 0 ?195 196
 197 190 0 0 1 30 194 427 0 197 190 198 0 +-.035 -.02 .023 0 1 3491481338843135e
-30 16 197 347 0 ?199 193 200 194 0 0 1 30 198 426 0 200 194 201 0 +0 -.02 .023
 -1 0 0 16 200 357 0 ?94 197 202 198 0 0 1 30 201 425 0 202 198 203 0 +.035 -.02
 -763719017167585e-31 0 -3469446951953615e-30 1 16 202 354 0 ?92 200 204 201 0 0
 1 30 203 424 0 204 201 205 0 +-.035 -.02 -763719017167585e-31 0 346944695195361
5e-30 -1 16 204 360 0 ?206 202 207 203 0 0 1 30 205 423 0 207 203 208 0 --.035 -
.018 .023 1 0 0 16 207 363 0 ?89 204 209 205 0 0 1 30 208 422 0 209 205 210 0 -.
035 -.018 .023 0 3469446951953615e-30 -1 16 209 351 0 ?86 207 211 208 0 0 1 30 2
10 421 0 211 208 212 0 --.035 -.018 -440687737790355e-34 0 -3469446951953615e-30
 1 16 211 348 0 ?213 209 214 210 0 0 1 30 212 420 0 214 210 215 0 --.035 -.02 .0
0073659999999999 1 0 0 16 214 368 0 ?79 211 216 212 0 0 1 30 215 419 0 216 212 2
17 0 -.035 -.018 7366e-7 0 1 3491481338843135e-30 16 216 367 0 ?218 214 219 215
 0 0 1 30 217 418 0 219 215 220 0 +-.035 -.018 7366e-7 1 0 0 16 219 369 0 ?64 21
6 192 217 0 0 1 30 220 417 0 192 217 221 0 --.035 -.02 .00073659999999999 0 1 34
91481338843135e-30 16 192 346 0 ?222 219 189 220 0 0 1 30 221 331 0 223 220 224
 0 -.035 -.0172634 -.002 1 0 0 16 223 272 0 ?225 226 227 221 0 0 1 31 224 330 0
 226 221 228 0 --.035 -.0172634 7366e-7 1 0 0 0 0 -1 .0027366 16 226 270 0 ?229
 230 223 224 0 0 1 31 228 328 0 227 224 231 0 +.035 -.0172634 7366e-7 1 0 0 0 0
 -1 .0027366 16 227 274 0 ?232 223 233 228 0 0 1 31 231 327 0 233 228 234 0 --.0
35 -.0172634 7366e-7 1 0 0 0 0 -1 7366e-7 16 233 276 0 ?235 227 236 231 0 0 1 30
 234 326 0 236 231 237 0 -.035 -.0172634 -867361737988404e-33 1 0 0 16 236 275 0
 ?74 233 196 234 0 0 1 31 237 325 0 196 234 238 0 +.035 -.0172634 7366e-7 1 0 0
 0 0 -1 7366e-7 16 196 278 0 ?239 236 193 237 0 0 1 30 238 323 0 240 237 241 0 +
-.035 -.0172634 -867361737988404e-33 0 0 -1 16 240 269 0 ?242 243 230 238 0 0 1
 30 241 320 0 230 238 244 0 +.035 -.0172634 -867361737988404e-33 0 0 -1 16 230 2
71 0 ?245 240 226 241 0 0 1 30 244 7 0 246 241 247 0 +.035 -.02 -.002 0 1 0 16 2
46 152 0 ?61 248 249 244 0 0 1 30 247 11 0 248 244 250 0 +-.035 .02 -.002 -1 0 0
 16 248 9 0 ?251 252 246 247 0 0 1 30 250 15 0 252 247 253 0 +-.035 -.02 -.002 0
 -1 0 16 252 13 0 ?254 20 248 250 0 0 1 30 253 74 0 243 250 255 0 +.035 -.02 0 0
 1 0 16 243 139 0 ?56 256 240 253 0 0 1 30 255 73 0 256 253 257 0 +-.035 .02 0 -
1 0 0 16 256 58 0 ?258 249 243 255 0 0 1 30 257 72 0 249 255 21 0 +-.035 -.02 0
 0 -1 0 16 249 54 0 ?259 246 256 257 0 0 1 30 21 97 0 10 257 7 0 +-.035 .02 -.00
2 0 0 1 17 259 0 260 261 258 72 262 249 0 263 +15 260 145 0 261 264 0 17 261 0 2
60 56 259 65 74 236 0 265 -17 258 0 260 259 56 51 266 256 0 0 +17 262 0 267 59 2
63 51 259 249 0 258 -17 263 0 267 262 254 72 242 240 0 0 -15 267 163 0 263 268 0
 17 254 0 267 263 59 47 269 252 0 0 +17 242 0 270 229 271 47 263 240 0 225 +15 2
70 293 0 68 272 0 17 229 0 270 68 242 75 49 226 0 222 +17 271 0 270 242 68 72 23
5 233 0 259 -17 225 0 273 269 274 47 77 223 0 254 +15 273 4 0 274 275 0 17 269 0
 273 276 225 50 254 252 0 251 -17 274 0 273 225 276 57 61 246 0 0 -17 77 0 277 8
2 49 57 225 223 0 232 -15 277 307 0 77 278 0 17 82 0 277 79 77 80 232 227 0 218
 -17 49 0 277 77 79 47 229 226 0 242 -17 232 0 279 71 218 57 82 227 0 245 +15 27
9 303 0 280 281 0 17 71 0 279 280 232 65 245 230 0 239 -17 218 0 279 232 280 80
 282 216 0 283 +17 245 0 284 61 265 57 71 230 0 274 +15 284 89 0 265 18 0 17 61
 0 284 285 245 53 274 246 0 286 +17 265 0 284 245 285 65 56 243 0 0 -17 285 0 28
4 265 61 54 286 20 0 266 +17 56 0 260 258 261 54 265 243 0 285 +17 286 0 287 251
 266 53 285 20 0 276 -16 20 82 0 ?285 10 252 7 0 0 1 17 266 0 287 286 24 54 258
 256 0 0 -15 287 87 0 266 288 0 17 24 0 287 266 251 51 59 10 0 262 +17 251 0 287
 24 286 50 276 248 0 0 +17 59 0 267 254 262 50 24 10 0 269 -17 276 0 273 274 269
 53 251 248 0 0 -14 255 288 88 289 ?272 268 287 5 19 +0 0 272 268 23 81 1 289 85
5 290 288 291 0 0 292 293 14 272 290 292 ?281 288 270 5 294 +0 0 281 288 23 14 2
68 86 295 ?288 264 267 5 296 +0 0 288 264 23 50 19 93 0 288 296 6 0 +-.035 .02 -
.002 0 1 0 0 0 1 13 23 34 0 0 0 0 0 0 9 16 14 16 629 297 ?18 0 298 5 299 +0 0 18
 0 23 81 1 297 861 290 16 300 0 295 301 302 14 18 170 301 ?275 16 284 5 6 +0 0 2
75 16 23 15 298 397 0 303 16 136 50 299 414 0 16 304 305 0 +0 -.018 -69388939039
0723e-31 0 1 3469446951953615e-30 0 -3469446951953615e-30 1 50 304 415 0 306 307
 299 0 +0 -.02 -763719017167585e-31 0 1 3469446951953615e-30 0 -3469446951953615
e-30 1 50 305 413 0 308 299 309 0 +-.035 -.02 .023 0 3491481338843135e-30 -1 0 1
 3491481338843135e-30 14 308 398 310 ?311 306 312 5 305 -0 0 311 306 23 50 309 4
12 0 313 305 314 0 +.035 -.02 .023 -1 0 0 0 0 1 14 313 384 315 ?306 316 317 5 30
9 -0 0 306 316 23 50 314 411 0 316 309 318 0 +-.035 -.02 -698296267768627e-32 1
 0 0 0 0 -1 14 316 378 319 ?313 320 321 5 314 -0 0 313 320 23 51 255 318 319 0 2
78 314 322 0 +.035 -.0172634 7366e-7 1 0 0 .0027366 0 -1 -3469446951953615e-30 1
4 278 304 323 1e-8 320 281 277 5 318 +0 0 320 281 23 51 322 318 0 320 318 294 0
 +.035 -.0172634 7366e-7 1 0 0 7366e-7 0 -1 -3469446951953615e-30 14 320 308 324
 1e-8 316 278 325 5 322 -0 0 316 278 23 50 294 316 0 272 322 326 0 +-.035 -.0172
634 7366e-7 -1 0 0 0 0 1 50 326 314 0 281 294 327 0 -.035 -.0172634 7366e-7 -1 0
 0 0 0 1 14 281 300 328 ?278 272 279 5 326 +0 0 278 272 23 50 327 3 0 275 326 32
9 0 +0 0 -.002 0 0 -1 -1 0 0 14 275 159 330 ?264 18 331 5 327 +0 0 264 18 23 50
 329 70 0 264 327 296 0 +0 0 0 0 0 -1 -1 0 0 14 264 147 332 ?268 275 333 5 329 -
0 0 268 275 23 50 296 92 0 268 329 19 0 +-.035 -.02 -.002 -1 0 0 0 0 1 81 1 332
 879 290 264 334 0 330 335 336 15 333 474 0 337 264 260 17 337 0 333 169 338 101
 46 170 0 0 -17 169 0 333 339 337 105 112 167 0 0 +17 338 0 333 337 339 42 100 1
60 0 0 -17 46 0 340 341 342 42 337 170 0 177 +15 340 557 0 46 343 0 17 341 0 340
 41 46 97 177 175 0 174 -17 342 0 340 46 41 101 180 178 0 337 -17 177 0 344 100
 110 42 341 175 0 338 +15 344 565 0 191 345 0 17 100 0 344 191 177 98 338 160 0
 346 +17 110 0 344 177 191 97 164 162 0 341 -17 191 0 344 110 100 84 346 189 0 1
64 +17 164 0 331 186 174 84 110 162 0 0 +15 331 512 0 174 275 273 17 186 0 331 3
47 164 102 96 184 0 0 +17 174 0 331 164 347 97 41 172 0 0 +17 347 0 331 174 186
 34 104 165 0 0 -17 41 0 340 342 341 34 174 172 0 180 -17 180 0 348 104 112 34 3
42 178 0 347 +15 348 561 0 107 349 0 17 104 0 348 107 180 102 347 165 0 350 +17
 112 0 348 180 107 101 169 167 0 342 -17 107 0 348 112 104 105 350 187 0 183 +17
 350 0 351 96 183 102 107 187 0 186 -17 183 0 351 350 346 105 339 181 0 169 +15
 351 553 0 96 311 0 17 346 0 351 183 96 98 191 189 0 339 -17 339 0 333 338 169 9
8 183 181 0 0 -17 96 0 351 346 350 84 186 184 0 191 -14 311 550 335 ?343 308 351
 5 307 -0 0 343 308 23 81 1 335 880 290 311 352 0 332 353 354 14 343 554 353 ?34
9 311 340 5 355 -0 0 349 311 23 51 307 570 0 311 355 304 0 +.02075 3811713162346
13e-32 0 0 0 1 .00925 1 0 0 51 355 571 0 343 356 307 0 +-.02075 -381171316234613
e-32 0 0 0 1 .00925 1 0 0 50 356 572 0 349 357 355 0 +-.02075 .00925 0 -18369701
9872103e-30 1 0 -1 -183697019872103e-30 0 14 349 558 358 ?345 343 348 5 356 -0 0
 345 343 23 50 357 573 0 345 359 356 0 +-.02075 -.00925 0 183697019872103e-30 -1
 0 1 183697019872103e-30 0 14 345 562 360 ?361 349 344 5 357 -0 0 361 349 23 51
 359 708 0 361 362 357 0 +.02775 -.018 .0118683 0 1 3469446951953615e-30 .00225
 0 -3469446951953615e-30 1 14 361 688 363 ?140 345 364 5 359 -0 0 140 345 23 51
 362 709 0 140 365 359 0 +-.02775 -.018 .0118683 0 1 3469446951953615e-30 .00225
 0 -3469446951953615e-30 1 14 140 692 366 ?130 361 35 5 362 -0 0 130 361 23 50 3
65 710 0 130 367 362 0 +-.02775 -.018 .0096183 0 3469446951953615e-30 -1 0 1 346
9446951953615e-30 14 130 696 368 ?369 140 127 5 365 -0 0 369 140 23 50 367 711 0
 369 0 365 0 +-.02775 -.018 .0141183 0 -3469446951953615e-30 1 0 -1 -34694469519
53615e-30 14 369 700 370 ?0 130 27 5 367 -0 0 0 130 23 81 1 370 887 290 369 371
 0 368 372 373 15 27 703 0 25 369 0 80 255 1 290 374 375 9000 1 1 1 1 1 1 1 1 0
 FFFFTFTFFFFFFF1 81 1 371 793 376 369 0 370 377 0 378 81 1 368 886 290 130 377 0
 366 370 379 81 1 372 889 290 306 380 0 370 0 381 82 255 1 373 -585039613 14 306
 390 372 ?308 313 382 5 304 -0 0 308 313 23 81 3 380 888 383 306 384 372 334 0 3
85 0 0 82 1 381 -812252925 80 3 383 386 387 9000 0 0 0 0 3 6 0 0 0 FFTTTTTTFFFFT
T1 1 1 81 1 384 784 376 306 0 380 388 389 390 81 3 334 878 383 264 391 332 392 3
80 393 0 0 82 3 385 738924 2 0 81 1 391 775 376 264 0 334 394 395 396 81 3 392 8
76 383 275 394 330 397 334 398 0 0 82 3 393 738924 3 0 81 1 394 774 376 275 0 39
2 399 391 400 81 1 330 877 290 275 392 0 328 332 401 81 3 397 874 383 281 402 32
8 403 392 404 0 0 82 3 398 738924 2 0 81 1 402 779 376 281 0 397 405 406 407 81
 1 328 875 290 281 397 0 324 330 408 81 3 403 872 383 320 409 324 410 397 411 0
 0 82 3 404 738924 8 0 81 1 409 781 376 320 0 403 406 412 413 81 1 324 873 290 3
20 403 0 323 328 414 81 3 410 870 383 278 406 323 415 403 416 0 0 82 3 411 73892
4 6 0 81 1 406 780 376 278 0 410 402 409 417 81 1 323 871 290 278 410 0 319 324
 418 81 3 415 868 383 316 412 319 419 410 420 0 0 82 3 416 738924 5 0 81 1 412 7
82 376 316 0 415 409 388 421 81 1 319 869 290 316 415 0 315 323 422 81 3 419 866
 383 313 388 315 423 415 424 0 0 82 3 420 738924 4 0 81 1 388 783 376 313 0 419
 412 384 425 81 1 315 867 290 313 419 0 310 319 426 81 3 423 864 383 308 389 310
 427 419 428 0 0 82 3 424 738924 4 0 81 1 389 785 376 308 0 423 384 352 429 81 1
 310 865 290 308 423 0 301 315 430 81 3 427 862 383 18 399 301 300 423 431 0 0 8
2 3 428 738924 4 0 81 1 399 773 376 18 0 427 432 394 433 81 1 301 863 290 18 427
 0 297 310 434 81 3 300 860 383 16 432 297 435 427 436 0 0 82 3 431 738924 4 0 8
1 1 432 772 376 16 0 300 0 399 437 81 3 435 858 383 268 395 295 438 300 439 0 0
 82 3 436 738924 3 0 81 1 395 776 376 268 0 435 391 440 441 81 1 295 859 290 268
 435 0 292 297 442 81 3 438 856 383 272 405 292 291 435 443 0 0 82 3 439 738924
 4 0 81 1 405 778 376 272 0 438 440 402 444 81 1 292 857 290 272 438 0 289 295 4
45 81 3 291 854 383 288 440 289 0 438 446 0 0 82 3 443 738924 8 0 81 1 440 777 3
76 288 0 291 395 405 447 82 3 446 738924 4 0 80 1 376 0 448 8001 0 0 0 0 3 5 0 0
 0 FFFFTFTFFFFFFF2 83 255 3 447 1 0 1 79 255 15 448 SDL/TYSA_COLOUR82 1 445 -784
269056 83 3 444 1 0 1 82 1 442 -895942400 83 3 441 1 0 1 83 3 437 1 0 1 82 1 434
 -763756288 83 3 433 1 0 1 82 1 430 -826932992 81 1 352 786 376 311 0 335 389 44
9 450 83 3 429 1 0 1 81 1 449 787 376 343 0 353 352 451 452 83 3 450 1 0 1 81 1
 353 881 290 343 449 0 335 358 453 81 1 451 788 376 349 0 358 449 454 455 83 3 4
52 1 0 1 81 1 358 882 290 349 451 0 353 360 456 81 1 454 789 376 345 0 360 451 4
57 458 83 3 455 1 0 1 81 1 360 883 290 345 454 0 358 363 459 81 1 457 790 376 36
1 0 363 454 460 461 83 3 458 1 0 1 81 1 363 884 290 361 457 0 360 366 462 81 1 4
60 791 376 140 0 366 457 377 463 83 3 461 1 0 1 81 1 366 885 290 140 460 0 363 3
68 464 81 1 377 792 376 130 0 368 460 371 465 83 3 463 1 0 1 83 3 465 1 0 1 82 1
 464 -606797565 82 1 462 -631832317 82 1 459 -677838591 82 1 456 -677445375 82 1
 453 -699596543 82 1 426 -811794176 83 3 425 1 0 1 82 1 422 -811269888 83 3 421
 1 0 1 82 1 418 -794296064 83 3 417 1 0 1 82 1 414 -787414784 83 3 413 1 0 1 82
 1 408 -785252096 83 3 407 1 0 1 82 1 401 -764739327 83 3 400 1 0 1 83 3 396 1 0
 1 83 3 390 1 0 1 79 12 387 GENERIC_PERM15 382 635 0 143 306 466 17 143 0 382 14
1 157 123 118 138 0 0 -15 466 393 0 283 306 0 17 283 0 466 92 206 80 79 214 0 46
7 -17 92 0 466 94 283 90 467 202 0 468 +17 206 0 466 283 94 75 469 204 0 0 +17 7
9 0 277 49 82 75 283 214 0 229 +17 467 0 317 282 468 80 92 202 0 0 -15 317 389 0
 282 313 0 17 282 0 317 86 467 62 218 216 0 303 -17 468 0 317 467 86 90 195 193
 0 470 -17 86 0 317 468 282 83 303 209 0 195 +17 195 0 312 89 470 83 468 193 0 4
71 +17 470 0 312 195 472 90 94 200 0 0 -15 312 403 0 89 308 0 17 472 0 312 470 8
9 69 199 197 0 469 -17 94 0 466 206 92 69 470 200 0 472 +17 89 0 312 472 195 87
 471 207 0 199 +17 199 0 321 213 469 87 472 197 0 473 +17 469 0 321 199 222 69 2
06 204 0 0 -15 321 383 0 222 316 0 17 222 0 321 469 213 75 68 192 0 206 +17 213
 0 321 222 199 66 473 211 0 0 +17 68 0 270 271 229 66 222 192 0 235 -17 235 0 32
5 64 74 66 271 233 0 474 +15 325 311 0 74 320 0 17 64 0 325 239 235 62 474 219 0
 280 +17 74 0 325 235 239 72 261 236 0 271 +17 474 0 298 473 303 66 64 219 0 213
 -17 473 0 298 471 474 87 213 211 0 0 -17 303 0 298 474 471 62 86 209 0 0 -17 47
1 0 298 303 473 83 89 207 0 0 -17 239 0 325 74 64 65 280 196 0 261 +17 280 0 279
 218 71 62 239 196 0 282 -17 141 0 382 475 143 108 132 142 0 0 +17 157 0 382 143
 475 116 32 155 0 0 +17 118 0 127 121 125 116 143 138 0 133 +16 138 661 0 ?118 1
29 476 151 0 0 1 16 476 669 0 ?475 138 148 477 0 0 1 30 151 721 0 138 477 139 0
 +-.02775 -.02 .0096183 1 0 0 30 477 722 0 476 478 151 0 +-.02775 -.02 .0141183
 1 0 0 30 478 723 0 148 0 477 0 +-.02775 -.018 .0141183 1 0 0 16 148 658 0 ?29 4
76 0 478 0 0 1 17 29 0 27 25 40 113 147 148 0 30 +17 40 0 27 29 28 26 36 145 0 1
47 +17 30 0 364 135 32 113 25 31 0 137 -15 364 691 0 32 361 0 17 135 0 364 133 3
0 119 137 144 0 128 +17 32 0 364 30 133 11 157 155 0 475 -17 137 0 136 147 128 1
13 135 144 0 0 -17 133 0 364 32 135 116 121 134 0 157 -17 475 0 382 157 141 11 2
8 476 0 0 +17 28 0 27 40 25 108 475 476 0 36 -17 36 0 35 132 33 108 40 145 0 141
 -82 1 379 -584646397 83 3 378 1 0 1 79 14 375 SWEntUnchanged82 1 354 -724631295
 82 1 336 -768802559 82 1 302 -577634045 82 1 293 -895811329 19 17 100 0 1 0 9 5
 S0 74 4 CI16 index_map_offset0 0 1 dCCZ20 15 10 0 0 380 372 479 480 481 482 483
 13 371 2 0 0 0 0 0 0 0 0 0 0 81 2 479 438 484 1 0 480 0 0 0 485 81 2 480 439 48
6 1 479 481 0 0 0 487 81 1 481 745 488 1 480 482 0 0 489 81 2 482 746 490 1 481
 483 0 0 0 0 81 2 483 747 491 1 482 13 0 0 492 0 81 2 13 770 493 1 483 2 0 0 0 4
94 80 2 493 495 496 9000 0 0 0 0 3 5 0 0 0 FFTFFFFFFFFFFF9 1 82 1 494 1 79 24 49
6 BODY_IN_LIGHTWEIGHT_PERM80 2 491 497 498 8004 0 0 0 0 3 5 0 0 0 FFTFFFFFFFFFFF
2 3 83 1 492 1e3 79 16 498 SDL/TYSA_DENSITY80 2 490 499 500 9000 0 0 0 0 3 5 0 0
 0 FFTFFFFFFFFFFF9 1 79 16 500 BODY_RECIPE_200180 1 488 501 502 9000 1 1 1 1 1 1
 1 1 0 FFTFFFFFFFFFFF1 82 1 489 51761 79 10 502 BODY_MATCH80 2 486 503 504 9000
 0 0 0 0 3 5 0 0 0 FFTFFFFFFFFFFF9 1 82 1 487 114 79 30 504 LAST_BODY_MODIFYING_
FEATURE_ID80 2 484 505 506 9000 0 0 0 0 3 5 0 0 0 FFTFFFFFFFFFFT9 1 82 1 485 293
 79 19 506 ENT_TIME_STAMP_200180 2 12 507 508 9000 0 0 0 0 3 5 0 0 0 FFTFFFFFFFF
FFF9 1 82 1 14 104 79 12 508 ATOM_ID_20011 0 
